<svg xmlns="http://www.w3.org/2000/svg" viewBox="0 0 128 128"><defs><style>.cls-1{fill:#29fdc2;}.cls-2{fill:#91e4ce;stroke:#1d134a;stroke-miterlimit:10;stroke-width:3px;}.cls-3{fill:#1d134a;}.cls-4{fill:#fff;}</style></defs><title>Bandage128</title><g id="Layer_9" data-name="Layer 9"><path class="cls-1" d="M22.71,28.73,21,27.39c-1.48,1-3.1,1.11-4.28.19-1.85-1.45-1.9-5-.11-7.87s4.74-4.07,6.59-2.63a4.7,4.7,0,0,1,1.37,4.36l1.79,1.4A1.65,1.65,0,0,1,26.7,25l-2.08,3.37A1.28,1.28,0,0,1,22.71,28.73Z"/><path class="cls-1" d="M15.25,71.86,13,71.78c-.76,1.73-2.08,2.85-3.59,2.79-2.38-.08-4.32-3-4.35-6.59S7,61.61,9.37,61.7c1.45,0,2.74,1.17,3.53,2.85l2.3.08a1.58,1.58,0,0,1,1.45,1.6l0,4.14A1.42,1.42,0,0,1,15.25,71.86Z"/><path class="cls-1" d="M105.33,111.06A24.05,24.05,0,0,1,94.49,116a23,23,0,0,1-9.87-.48c-2-.3-33.35-5.19-37.34-17.7A3.65,3.65,0,0,0,47,96.71a3.5,3.5,0,0,0-.91-1.31A2.89,2.89,0,0,0,44,94.66q-4.47-.5-9.07-1.12-6.82-.92-13.28-2.05a19.82,19.82,0,0,1-4.32-5.75A22.39,22.39,0,0,1,15,77.05q.3-11.64.59-23.28c.62-7.1,2.89-21.67,12.89-34.1a50.64,50.64,0,0,1,8.35-8.24,50.24,50.24,0,0,0,8.94,6.63,46.27,46.27,0,0,0,15.77,5.62l.63-3a5.64,5.64,0,0,1,1.08-2,5,5,0,0,1,3.15-1.73c8.29-2,26.08-4.64,43.15,5.79a54.51,54.51,0,0,1,8.57,6.5A6.26,6.26,0,0,1,120.29,32s.14.35.71,2.69q-7.57,36.19-15.17,72.38c0,.63-.1,1.31-.19,2S105.44,110.45,105.33,111.06Z"/><path class="cls-2" d="M22.14,29.69l-1.72-1.35c-1.49,1-3.11,1.11-4.29.19-1.85-1.44-1.9-5-.11-7.86s4.74-4.08,6.6-2.63A4.66,4.66,0,0,1,24,22.39l1.8,1.4a1.66,1.66,0,0,1,.34,2.14L24,29.3A1.28,1.28,0,0,1,22.14,29.69Z"/><path class="cls-2" d="M14.67,72.82l-2.21-.08c-.76,1.72-2.08,2.84-3.59,2.79-2.37-.09-4.32-3-4.34-6.6s1.88-6.36,4.26-6.28c1.45.05,2.74,1.18,3.53,2.85l2.31.08a1.59,1.59,0,0,1,1.45,1.6l0,4.14A1.43,1.43,0,0,1,14.67,72.82Z"/><path class="cls-3" d="M104.75,112a24.27,24.27,0,0,1-10.84,4.9,22.87,22.87,0,0,1-9.86-.49c-2-.3-33.35-5.19-37.34-17.7a4.45,4.45,0,0,0-.27-1.06,3.36,3.36,0,0,0-.91-1.31,3,3,0,0,0-2.14-.75c-3-.33-6-.7-9.07-1.11q-6.81-.93-13.27-2a19.93,19.93,0,0,1-4.33-5.76A22.52,22.52,0,0,1,14.43,78q.29-11.64.58-23.28c.63-7.09,2.89-21.66,12.89-34.1a49.8,49.8,0,0,1,8.36-8.23A49.87,49.87,0,0,0,45.2,19,46,46,0,0,0,61,24.63c.21-1,.41-2,.62-3a6,6,0,0,1,1.08-2,4.94,4.94,0,0,1,3.15-1.72c8.29-2,26.08-4.65,43.16,5.78a54,54,0,0,1,8.56,6.5,6.31,6.31,0,0,1,2.18,2.79s.13.34.71,2.69L105.25,108c0,.64-.1,1.31-.19,2S104.87,111.4,104.75,112Z"/><path class="cls-1" d="M46.71,98.73a7.84,7.84,0,0,1-.27-1.06A4.45,4.45,0,0,1,46.71,98.73Z"/><path class="cls-1" d="M87,116c-2.54-.41-6.28-1.09-10.77-2.19-8.78-2.13-13.46-4.14-16.58-5.69-4.56-2.27-7.51-4.41-9.69-8a20.44,20.44,0,0,1-1.53-3Q60.25,63.26,72,29.42c-6.86-4.19-8-6.62-7.77-8.08.77-4.25,14.52-4.92,23.13-4a54.9,54.9,0,0,1,15.34,4c5.38,2.27,10.4,4.48,14.1,10.11a24.47,24.47,0,0,1,2.28,4.45,4.19,4.19,0,0,1,.12.91,4.81,4.81,0,0,1-.59,2.38c-.53,1-4.8,21.65-14.76,72.21A21.17,21.17,0,0,1,87,116Z"/><path class="cls-1" d="M15.52,81.65l1.54,3.75a13.39,13.39,0,0,0,3.18,4.38l.14.12s.44.39.89.71a24.38,24.38,0,0,0,7,1.52h0c.79.18,2.14.46,4.38.81,2,.29,3.48.47,3.91.51,1.79.2,3.14.3,4.21.38,1.38.1,2.55.16,3.43.2a4.43,4.43,0,0,0,1.49-.3,4,4,0,0,0,.86-.45l.32-.68L48,88.89s5.25-18.26,7.09-28c.55-2.89.22-1,2-9.83,2.57-13,4.88-25.11,4.88-25.11a430.8,430.8,0,0,1-9.64,52c-1,4.19-2.1,8-2.1,8-1,3.33-1.88,6.11-2.59,8.14a2.05,2.05,0,0,1-1.08.65,1.86,1.86,0,0,1-.73,0l-2.26-.09a154.08,154.08,0,0,1-18.71-2.29l-3.29-.6c-.19-.14-.47-.35-.8-.63a17.54,17.54,0,0,1-2.13-2.42A18.06,18.06,0,0,1,15.52,81.65Z"/><path class="cls-3" d="M86.93,115.29c-2.52-.43-6.23-1.13-10.69-2.25-8.71-2.19-13.36-4.22-16.46-5.79-4.53-2.28-7.46-4.44-9.65-8a20,20,0,0,1-1.53-3,305.43,305.43,0,0,0,9.66-34.95C61.14,47.74,63.16,33.53,72,29.42c.35-.16.64-.28.82-.35-7.18-4.7-8.28-7.22-8-8.64,1-4.3,16-4,21.85-3.39a49.83,49.83,0,0,1,7.07,1.25A52.44,52.44,0,0,1,102,21.17c5.35,2.3,10.34,4.52,14,10.16a23.68,23.68,0,0,1,2.29,4.45,4.7,4.7,0,0,1,.13.9,4.8,4.8,0,0,1-.58,2.37c-.52,1-4.63,21.52-14.23,71.79a20.39,20.39,0,0,1-3.13,2.13A21.4,21.4,0,0,1,86.93,115.29Z"/><path class="cls-1" d="M116.09,34.92c1-2.67-5.84-8-7.2-9.07C107,24.35,99.81,19,85.26,18.07c-1-.07-18.71-1.19-19.27,2.41S82.62,30.23,92.6,33C96.11,33.93,114.62,39,116.09,34.92ZM93,32.35c-11.7-3.12-26.46-9-25.95-11.82.19-1,2.3-1.32,6.53-1.89a51.17,51.17,0,0,1,16.45.48c5.74,1.1,11.56,2.21,17.68,6.75,1.26.93,8.11,6,7.26,8.44C113.76,37.86,97,33.41,93,32.35Z"/><path class="cls-1" d="M113.2,33.39c.67-2.07-5.49-6.74-9.38-8.91A34.51,34.51,0,0,0,96,21.43a54.19,54.19,0,0,0-9.63-1.79,46.14,46.14,0,0,0-8.57-.43c-3.83.21-8,.45-8.28,1.76-.4,2.27,11.33,7,20.4,9.67C97,32.71,112.21,36.42,113.2,33.39ZM90.32,30c-8.84-2.61-19.8-7.1-19.43-9,.21-1.06,3.78-1.07,8.85-1.08a57.64,57.64,0,0,1,11,1,42.92,42.92,0,0,1,9.5,2.64c5.71,2.46,12.64,7.38,12,9.32C111.4,35.48,97.08,32,90.32,30Z"/><path class="cls-1" d="M110.92,32.24c.44-1.46-5.94-5.34-10.6-7.4C94,22.05,88.55,21.59,83,21.18c-4.51-.34-9.21-.69-9.4.33-.31,1.59,10.32,5.56,18,7.81C97.69,31.08,110.33,34.2,110.92,32.24ZM92.14,29.11C84.7,27,75,23.27,75.25,21.88c.18-.9,4.5-.51,9.12-.09,5.74.51,10.27,1,15.59,3.29,4.29,1.88,9.93,5.35,9.54,6.66C109,33.51,97.41,30.63,92.14,29.11Z"/><path class="cls-4" d="M107.39,71.11h0a1,1,0,0,1-.67-1.24l5.55-25.36a.91.91,0,0,1,1.1-.75h0A1,1,0,0,1,114,45l-5.54,25.36A.92.92,0,0,1,107.39,71.11Z"/><path class="cls-4" d="M105.83,74.6h0a1.05,1.05,0,0,1,.21-1.35h0a.81.81,0,0,1,1.21.24h0a1,1,0,0,1-.21,1.35h0A.81.81,0,0,1,105.83,74.6Z"/><path class="cls-1" d="M107.19,30.8c.26-1-5.5-4.05-10.6-5.73a46.55,46.55,0,0,0-10.67-2c-3-.31-7.4-.77-7.53-.08-.17,1,7.93,3.64,13.27,5.14C96.23,29.38,106.85,32.05,107.19,30.8ZM91,27.39C86.28,26,80.11,23.86,80.23,23.27s5.23.33,11.07,1.31a49.28,49.28,0,0,1,4.89,1c4.82,1.32,9.53,3.91,9.33,4.64C105.26,31.17,96.08,28.89,91,27.39Z"/></g></svg>