<svg xmlns="http://www.w3.org/2000/svg" viewBox="0 0 128 128"><defs><style>.cls-1,.cls-3{fill:#29fdc2;}.cls-2{fill:#1d134a;}.cls-3{stroke:#1d134a;stroke-miterlimit:10;stroke-width:3px;}.cls-4{fill:#fff;}</style></defs><title>Forceps128</title><g id="Layer_4" data-name="Layer 4"><path class="cls-1" d="M108.62,46.28c2.82-13.07-1.88-25.26-10.5-27.21S80.23,26.13,77.41,39.2c-.07.32-.13.64-.19.95a3.19,3.19,0,0,0-1.75,1,14.48,14.48,0,0,0-5-2.54,14.4,14.4,0,0,0-5.36-.76,3.3,3.3,0,0,0-.88-1.47c.12-.29.23-.59.34-.9C69.19,22.9,66.23,10.16,58,7s-18.69,4.37-23.3,16.9S33,49.13,41.29,52.33c5,1.93,10.81-.08,15.63-4.76L50.84,81.75a3.59,3.59,0,0,0-.12.47l-5.6,31.5a3.15,3.15,0,0,0,.06,1.4l.81,8.32.09-.19v.07l5.12-6.51a3.22,3.22,0,0,0,.8-1.14L64.08,86.15a2.64,2.64,0,0,0,.15-.45l13.13-32c1.54,6.62,5.33,11.56,10.55,12.75C96.53,68.37,105.8,59.35,108.62,46.28Zm-65.28-.65c-5.45-2.15-7.18-11.09-3.85-20s10.44-14.35,15.89-12.2,7.18,11.09,3.86,20S48.8,47.78,43.34,45.63Zm14,37.83a3.91,3.91,0,0,0,0-.48l6.9-38.81,8.56,2.67L58.06,83a3.42,3.42,0,0,0-.21.43l-.83,2ZM88.84,60c-5.63-1.6-8.19-10.33-5.72-19.5s9-15.32,14.68-13.72,8.19,10.33,5.71,19.5S94.47,61.62,88.84,60Z"/><path class="cls-2" d="M109,46.64c2.82-13.08-1.89-25.26-10.51-27.22S80.64,26.48,77.82,39.56c-.06.31-.13.63-.19.95a3.09,3.09,0,0,0-1.74.94,16.77,16.77,0,0,0-10.36-3.3,3.27,3.27,0,0,0-.88-1.46c.12-.3.24-.6.35-.91,4.61-12.52,1.64-25.27-6.61-28.47s-18.69,4.37-23.3,16.9S33.44,49.49,41.7,52.68c5,1.94,10.81-.08,15.63-4.76L51.25,82.1a2.47,2.47,0,0,0-.11.47l-5.61,31.5a3.29,3.29,0,0,0,.06,1.4l.81,8.32.1-.19v.07l5.11-6.51a3.1,3.1,0,0,0,.8-1.14L64.5,86.5a2.59,2.59,0,0,0,.14-.45L77.78,54c1.54,6.62,5.32,11.56,10.55,12.75C96.94,68.72,106.22,59.71,109,46.64ZM43.76,46c-5.46-2.14-7.18-11.09-3.86-20s10.44-14.35,15.9-12.2,7.18,11.09,3.85,20S49.21,48.13,43.76,46Zm14,37.84a2.81,2.81,0,0,0,.05-.49l6.9-38.81,8.57,2.68L58.48,83.38a2.49,2.49,0,0,0-.22.43l-.82,2ZM89.26,60.38c-5.63-1.6-8.19-10.33-5.72-19.5s9-15.31,14.67-13.72,8.19,10.33,5.72,19.5S94.89,62,89.26,60.38Z"/><path class="cls-1" d="M49,13.62c-1.14.47-4.32,2-7.53,7.27a38.56,38.56,0,0,0-4.37,11.57,22.44,22.44,0,0,1,1.32-6,27.68,27.68,0,0,1,2.93-6.64c2.35-3.63,7.58-9,12.45-7.93a7.35,7.35,0,0,1,4.06,2.52A12.48,12.48,0,0,0,54,12.84,9.07,9.07,0,0,0,49,13.62Z"/><path class="cls-1" d="M54.91,107.77c-.36.7-1.39,2.72-1.45,2.68s.84-2,1.56-3.62q10.51-26.53,21-53a.37.37,0,0,1,.49-.21.38.38,0,0,1,.2.5C60.29,95.84,56.12,105.39,54.91,107.77Z"/><path class="cls-3" d="M54.1,86,54,84.67a3.26,3.26,0,0,1,4.21-3.24l.82.25a3.26,3.26,0,0,1,1.74,5L60,87.76A3.25,3.25,0,0,1,54.1,86Z"/><path class="cls-1" d="M57.55,79.58h0a.38.38,0,0,1-.3-.45l5.29-29.26a.37.37,0,0,1,.43-.31h0a.39.39,0,0,1,.31.45L58,79.27A.38.38,0,0,1,57.55,79.58Z"/><path class="cls-1" d="M71.71,40.21l-1.6-.52a17.41,17.41,0,0,0-1.9-.52c-1.19-.26-1.93-.28-1.92-.31a10.15,10.15,0,0,1,4.44.46,11.42,11.42,0,0,1,4.11,2.41s-.46-.32-1.28-.73A14.38,14.38,0,0,0,71.71,40.21Z"/><ellipse class="cls-4" cx="64.07" cy="38.01" rx="0.57" ry="1.03" transform="translate(-10.39 40.31) rotate(-32.45)"/><ellipse class="cls-4" cx="77.17" cy="42.02" rx="1.02" ry="0.57" transform="translate(-10.46 48.49) rotate(-32.79)"/><path class="cls-4" d="M51.42,7.78C45,9.12,41,15,41.15,15.16a23.53,23.53,0,0,1,8-5.59c3.61-1.48,6.83-1.63,6.8-1.88S53.67,7.32,51.42,7.78Z"/><ellipse class="cls-4" cx="57.14" cy="7.86" rx="0.33" ry="0.71" transform="translate(32.1 59.83) rotate(-72.1)"/><path class="cls-4" d="M95.48,20c-5.85.07-11,6-13.29,11.12-.55,1.23-.69,1.89-.56,2,.55.32,4-9.2,11.37-11.56,2-.64,4.7-.88,4.67-1.22S96.29,20,95.48,20Z"/><path class="cls-4" d="M55.57,67.89h0a.3.3,0,0,1-.24-.35L57.8,53.89a.29.29,0,0,1,.34-.24h0a.3.3,0,0,1,.23.35L55.91,67.65A.29.29,0,0,1,55.57,67.89Z"/><ellipse class="cls-4" cx="55.16" cy="69.37" rx="0.61" ry="0.62"/><path class="cls-1" d="M46.41,123.79l0,0a.13.13,0,0,1-.09-.16l9.89-34.2a.13.13,0,0,1,.16-.09h0a.13.13,0,0,1,.08.16L46.57,123.7A.13.13,0,0,1,46.41,123.79Z"/><path class="cls-1" d="M52.42,116.14S50.27,119,48,118.31s-2.81-4.16-2.73-4.2.87,3.33,3,3.86S52.4,116.1,52.42,116.14Z"/></g></svg>