<svg xmlns="http://www.w3.org/2000/svg" viewBox="0 0 128 128"><defs><style>.cls-1{fill:#29fdc2;}.cls-2{fill:#91e4ce;}.cls-3{fill:#1d134a;}.cls-4,.cls-5{fill:#fff;}.cls-5{stroke:#1d134a;stroke-miterlimit:10;stroke-width:3px;}</style></defs><title>Medigel128</title><g id="Layer_7" data-name="Layer 7"><path class="cls-1" d="M103.82,38.08a10.22,10.22,0,0,0-5.34-6,34.33,34.33,0,0,0-8.1-3.14V18.76a3.22,3.22,0,0,0,1.85-3V11.34c0-.12,0-.24,0-.36a3.32,3.32,0,0,0-1-2.05c-.16-.13-.34-.27-.53-.4h0c-3.47-2.34-12.34-4-22.73-4C58,4.52,49.52,6,45.75,8.2a3.14,3.14,0,0,0-2.4,3.14v4.45a3.16,3.16,0,0,0,2.17,3.08V29.38A31.21,31.21,0,0,0,39.11,32,9.35,9.35,0,0,0,37,33.34a8.87,8.87,0,0,0-4.79,8v62.33a8.9,8.9,0,0,0,4.42,7.82,3,3,0,0,0-.41,1.21,1.37,1.37,0,0,0,0,.29c0,5,14.22,9,31.76,9,17,0,30.79-3.77,31.7-8.52h0a2.7,2.7,0,0,0,0-.49,3,3,0,0,0-.28-1.22,8.85,8.85,0,0,0,5-8.1v-62A11.16,11.16,0,0,0,103.82,38.08Zm-2.3,59.33a12.1,12.1,0,0,1-7.47,11.39c-5.07,2.67-14.8,4.47-26,4.47-11.84,0-22.07-2-26.84-5h0A12.23,12.23,0,0,1,34.9,97.41V45c0-6.65,5-12.08,11.18-12.08h.16c2.48,3.82,11.08,6.65,21.32,6.65s18.85-2.83,21.33-6.65h1.45c6.15,0,11.18,5.43,11.18,12.08Z"/><path class="cls-1" d="M86.54,35H49.89c-6.67,0-12.14,5.94-12.14,13.19V94.33a13.76,13.76,0,0,0,3.37,9.1h0c2.87,4.25,13.88,7.41,27,7.41,12.08,0,22.36-2.68,26.18-6.41a13.7,13.7,0,0,0,4.35-10.11V48.17C98.67,40.92,93.21,35,86.54,35ZM96,90.28A16,16,0,0,1,89.84,103a14.5,14.5,0,0,1-1.84,1.2,19.88,19.88,0,0,1-3.29,1.33,57.05,57.05,0,0,1-16.41,2.13,58.11,58.11,0,0,1-15.88-2c-6.81-1.43-12-7.82-12-15.43v-38c0-8.65,6.69-15.73,14.86-15.73H81.15C89.32,36.59,96,43.67,96,52.32Z"/><ellipse class="cls-1" cx="68.89" cy="72.65" rx="23.27" ry="23.79"/><path class="cls-1" d="M85.44,70.18V76.1a4,4,0,0,1-3.84,4.17H75.66V87.1a4,4,0,0,1-3.83,4.17H66.39a4,4,0,0,1-3.84-4.17V80.27H56.83A4,4,0,0,1,53,76.1V70.18A4,4,0,0,1,56.83,66h5.72V60.16A4,4,0,0,1,66.39,56h5.44a4,4,0,0,1,3.83,4.17V66H81.6A4,4,0,0,1,85.44,70.18Z"/><path class="cls-1" d="M88.34,95.66c0-.46,0-.93,0-1.4,0-6-2.65-11.2-6.6-14A22.47,22.47,0,0,0,64.5,67c-.25-6.08-2.37-11.42-5.54-14.79,0-.27,0-.54,0-.82C59,43.6,54.38,37.3,48.7,37.3S38.42,43.6,38.42,51.36a18.37,18.37,0,0,0,1.14,6.46,26.74,26.74,0,0,0-2,10.35,28,28,0,0,0,.49,5.26,30,30,0,0,0,.48,13,20.19,20.19,0,0,0-.11,2.21c0,12.1,10.09,21.91,22.54,21.91A22.92,22.92,0,0,0,69.32,109a11.24,11.24,0,0,0,11.09.19,10.33,10.33,0,0,0,2.18.22c5.06,0,9.17-3.45,9.17-7.71A7.34,7.34,0,0,0,88.34,95.66ZM41.64,47.37A3.22,3.22,0,0,1,44.72,44a2.86,2.86,0,0,1,1.36.34,1.87,1.87,0,0,1,1.79-1.58,2,2,0,0,1,0,4h-.12a3.18,3.18,0,0,1,.05.62,3.1,3.1,0,1,1-6.17,0Zm8,49.78a.47.47,0,1,1-.93,0v0a1.24,1.24,0,0,1-.33,0,2,2,0,1,1,1.81-2,2,2,0,0,1-.73,1.56A.5.5,0,0,1,49.65,97.15Zm31.06,7.18A2.48,2.48,0,1,1,83,101.86,2.39,2.39,0,0,1,80.71,104.33ZM84,97.15a1.07,1.07,0,1,1,1-1.07A1,1,0,0,1,84,97.15Z"/><path class="cls-2" d="M89.68,95.52c0-.46,0-.93,0-1.41,0-6-2.65-11.2-6.6-14A22.42,22.42,0,0,0,65.84,66.82C65.6,60.74,63.47,55.4,60.3,52c0-.27,0-.54,0-.81,0-7.77-4.6-14.07-10.28-14.07s-10.28,6.3-10.28,14.07a18.09,18.09,0,0,0,1.15,6.45,26.78,26.78,0,0,0-2,10.35,28.82,28.82,0,0,0,.48,5.26,30.58,30.58,0,0,0-.48,5.41,29.49,29.49,0,0,0,1,7.57c-.07.72-.11,1.46-.11,2.2,0,12.11,10.09,21.92,22.54,21.92a23.09,23.09,0,0,0,8.36-1.56,11.24,11.24,0,0,0,11.09.19,11.11,11.11,0,0,0,2.18.22c5.06,0,9.17-3.45,9.17-7.71A7.28,7.28,0,0,0,89.68,95.52ZM43,47.23a3.22,3.22,0,0,1,3.08-3.35,2.81,2.81,0,0,1,1.37.34,1.88,1.88,0,0,1,1.78-1.59,2,2,0,0,1,0,4H49.1a3.11,3.11,0,0,1,.06.62,3.1,3.1,0,1,1-6.18,0ZM51,97a.48.48,0,0,1-.46.5.48.48,0,0,1-.47-.5v0a1.69,1.69,0,0,1-.33,0,2,2,0,1,1,1.81-2,2,2,0,0,1-.72,1.56A.49.49,0,0,1,51,97Zm31.06,7.18a2.48,2.48,0,1,1,2.29-2.47A2.38,2.38,0,0,1,82.05,104.18ZM85.33,97a1.07,1.07,0,1,1,1-1.06A1,1,0,0,1,85.33,97Z"/><path class="cls-3" d="M104.51,38.36a10.22,10.22,0,0,0-5.34-6,34.5,34.5,0,0,0-8.1-3.14V19a3.22,3.22,0,0,0,1.85-3V11.62c0-.12,0-.24,0-.36a3.32,3.32,0,0,0-1-2c-.16-.13-.34-.27-.53-.4h0C87.9,6.46,79,4.8,68.64,4.8c-9.91,0-18.43,1.51-22.21,3.68A3.13,3.13,0,0,0,44,11.62v4.45a3.16,3.16,0,0,0,2.17,3.08V29.66a31.21,31.21,0,0,0-6.41,2.65,9.41,9.41,0,0,0-2.11,1.31,8.88,8.88,0,0,0-4.78,8V104a8.91,8.91,0,0,0,4.42,7.82,3,3,0,0,0-.41,1.2,1.51,1.51,0,0,0,0,.3c0,5,14.21,9,31.75,9,16.95,0,30.8-3.77,31.71-8.52h0a2,2,0,0,0,0-.49,2.94,2.94,0,0,0-.28-1.22,8.85,8.85,0,0,0,5-8.1V42A11.16,11.16,0,0,0,104.51,38.36Zm-2.3,59.33a12.1,12.1,0,0,1-7.47,11.39c-5.08,2.67-14.8,4.47-26,4.47-11.85,0-22.07-2-26.85-5a0,0,0,0,1,0,0,12.23,12.23,0,0,1-6.33-10.88V45.3c0-6.65,5-12.08,11.18-12.08h.16C49.4,37,58,39.87,68.25,39.87S87.1,37,89.57,33.22H91c6.15,0,11.18,5.43,11.18,12.08Z"/><path class="cls-3" d="M87.22,35.26H50.57c-6.67,0-12.13,5.94-12.13,13.19V94.61a13.76,13.76,0,0,0,3.37,9.1h0c2.87,4.25,13.88,7.41,27,7.41,12.08,0,22.36-2.68,26.17-6.41a13.66,13.66,0,0,0,4.35-10.11V48.45C99.35,41.2,93.9,35.26,87.22,35.26Zm9.47,55.3c0,1.32-.07,7.57-3.59,11a20,20,0,0,1-4.42,3,21.33,21.33,0,0,1-3.28,1.33A57.05,57.05,0,0,1,69,108c-5.28,0-9.92-.13-15.89-2-4.48-1.38-7.77-2.45-10-5.88a15.21,15.21,0,0,1-2-9.55v-38c-.15-.75-1.23-6.51,2.34-11.3A11.88,11.88,0,0,1,56,36.87H81.84A12.85,12.85,0,0,1,93.33,41,15.45,15.45,0,0,1,96.69,52.6Z"/><path class="cls-4" d="M88.25,104.5a13.13,13.13,0,0,1-3.19,1.33A18.93,18.93,0,0,0,88.25,104.5Z"/><path class="cls-4" d="M90,103.3a9,9,0,0,1-1.79,1.2A12.71,12.71,0,0,0,90,103.3Z"/><ellipse class="cls-1" cx="68.57" cy="71.86" rx="23.27" ry="23.79"/><ellipse class="cls-5" cx="69.57" cy="72.93" rx="23.27" ry="23.79"/><path class="cls-1" d="M85.82,69.94v5.91A4,4,0,0,1,82,80H76v6.83A4,4,0,0,1,72.21,91H66.77a4,4,0,0,1-3.84-4.17V80H57.21a4,4,0,0,1-3.83-4.18V69.94a4,4,0,0,1,3.83-4.18h5.72V59.91a4,4,0,0,1,3.84-4.17h5.44A4,4,0,0,1,76,59.91v5.85H82A4,4,0,0,1,85.82,69.94Z"/><path class="cls-3" d="M86.13,70.46v5.92a4,4,0,0,1-3.84,4.17H76.35v6.83a4,4,0,0,1-3.83,4.17H67.08a4,4,0,0,1-3.84-4.17V80.55H57.52a4,4,0,0,1-3.83-4.17V70.46a4,4,0,0,1,3.83-4.17h5.72V60.44a4,4,0,0,1,3.84-4.17h5.44a4,4,0,0,1,3.83,4.17v5.85h5.94A4,4,0,0,1,86.13,70.46Z"/><ellipse class="cls-1" cx="53.11" cy="9.94" rx="4.28" ry="1.11"/><ellipse class="cls-1" cx="62.31" cy="7.24" rx="4.28" ry="1.11"/><ellipse class="cls-1" cx="74.53" cy="7.24" rx="4.28" ry="1.11"/><ellipse class="cls-1" cx="84.39" cy="11.05" rx="4.28" ry="1.11"/><ellipse class="cls-1" cx="68.21" cy="11.05" rx="4.28" ry="1.11"/><ellipse class="cls-3" cx="54.08" cy="10.08" rx="4.28" ry="1.11"/><ellipse class="cls-3" cx="63.28" cy="7.38" rx="4.28" ry="1.11"/><ellipse class="cls-3" cx="75.5" cy="7.38" rx="4.28" ry="1.11"/><ellipse class="cls-3" cx="85.36" cy="11.19" rx="4.28" ry="1.11"/><ellipse class="cls-3" cx="69.18" cy="11.19" rx="4.28" ry="1.11"/><path class="cls-1" d="M90.12,28.06a12.16,12.16,0,0,1-.53,3.79C86,42.09,49.23,40.38,46.9,31.55a10.18,10.18,0,0,1-.25-3.32c.16,0,.37,2.08,1.39,3.85,1.26,2.19,3.39,3.23,5.71,4a48.08,48.08,0,0,0,16.72,2.07c6.88-.52,16.26-1.23,18.55-6.77C89.52,30.19,90,28,90.12,28.06Z"/><path class="cls-1" d="M90.35,12.17c0,.17-9,4-21.18,4.13-12.43.15-21.86-3.62-21.83-3.78a76.27,76.27,0,0,0,20.2,3A78,78,0,0,0,90.35,12.17Z"/><path class="cls-1" d="M89.16,19.2c0,.19-8.59,2.92-19.88,2.78s-20.07-3.12-20-3.31A97.21,97.21,0,0,0,69,21.15,97.65,97.65,0,0,0,89.16,19.2Z"/><path class="cls-4" d="M48.45,118.61c-.11.26-8.31-2.09-9.73-4.35-.08-.14-.39-.62-.21-.71s1.65.92,2.47,1.49C44.78,117.71,48.51,118.43,48.45,118.61Z"/><path class="cls-1" d="M90.54,114.9a78.14,78.14,0,0,1-22.3,2.72,78.55,78.55,0,0,1-22-3.16A96.72,96.72,0,0,0,68,117.25,96,96,0,0,0,90.54,114.9Z"/><path class="cls-4" d="M45.61,15.37c.19.94.72,1.42.55,1.62s-.33.05-.47,0c-1.09-.58-.66-4.4-.42-4.41,0,0,.08.14.16.42A17.07,17.07,0,0,1,45.61,15.37Z"/></g></svg>