<svg xmlns="http://www.w3.org/2000/svg" viewBox="0 0 128 128"><defs><style>.cls-1{fill:#29fdc2;}.cls-2{fill:#1d134a;}.cls-3{fill:#91e4ce;}.cls-4{fill:#fff;}</style></defs><title>Scalpel128</title><g id="Layer_10" data-name="Layer 10"><path class="cls-1" d="M110.94,16.13a19.62,19.62,0,0,0-.92-3.76,17.41,17.41,0,0,0-1-2.32,19.49,19.49,0,0,0-1.09-1.86,20.26,20.26,0,0,0-1.4-1.63,21.13,21.13,0,0,0-1.59-1.49,6.65,6.65,0,0,0-1.87-1.32,7.8,7.8,0,0,0-1.72-.59L72.94,40.84l-60.16,80.4a3.5,3.5,0,0,0,1.67,2c1.23.68,3,.81,3.73.16.38-.37.15-.73.44-1.35a3.51,3.51,0,0,1,2.22-1.59,33.52,33.52,0,0,1,8.41-1.87,26.93,26.93,0,0,0,8.33-1.52,16.92,16.92,0,0,0,1.55-.68q5.55-8.2,11.06-16.56,17.82-27,34-53.55L84,42c.3,0,.8.08,1.42.11,10.75.45,18.06-6.87,19.12-8a21.86,21.86,0,0,0,4.29-6.36A20,20,0,0,0,110.94,16.13ZM38.06,101l-4.21,6.11a3.54,3.54,0,0,1-4,1l-.15.22a1.48,1.48,0,0,1-1.84.32l-1-.54a1.07,1.07,0,0,1-.56-1.54l3-4.37a.79.79,0,0,1,.14-.17l2.79-4a3.62,3.62,0,0,1,4.53-.79,2.82,2.82,0,0,1,1.7,3.07A2.39,2.39,0,0,1,38.06,101Z"/><path class="cls-2" d="M111.28,17.15a20.37,20.37,0,0,0-.91-3.75,17.65,17.65,0,0,0-1-2.33,19.87,19.87,0,0,0-1.09-1.86,20.26,20.26,0,0,0-1.4-1.63,21.13,21.13,0,0,0-1.59-1.49,6.86,6.86,0,0,0-1.87-1.32,7.8,7.8,0,0,0-1.72-.59L73.28,41.86q-30.08,40.2-60.16,80.41a3.56,3.56,0,0,0,1.67,2c1.23.68,3,.8,3.73.15.39-.37.15-.72.44-1.34a3.53,3.53,0,0,1,2.22-1.6,33.52,33.52,0,0,1,8.41-1.87,26.93,26.93,0,0,0,8.33-1.52c.67-.25,1.2-.5,1.55-.67q5.55-8.22,11.06-16.57,17.82-27,34-53.55L84.38,43c.3,0,.8.08,1.42.11,10.75.45,18.06-6.87,19.12-8a22,22,0,0,0,4.29-6.35A19.92,19.92,0,0,0,111.28,17.15ZM38.4,102l-4.21,6.11a3.54,3.54,0,0,1-4,1l-.15.22a1.48,1.48,0,0,1-1.84.32l-1.05-.54a1.07,1.07,0,0,1-.56-1.54l3-4.37a1.15,1.15,0,0,1,.14-.17l2.79-4A3.62,3.62,0,0,1,37,98.17a2.82,2.82,0,0,1,1.7,3.07A2.17,2.17,0,0,1,38.4,102Z"/><path class="cls-2" d="M111,25.27a26.35,26.35,0,0,1-5.93,10.52A21.29,21.29,0,0,1,98.2,41.1c-7,3.31-17.51,3.43-19.93.19a2.19,2.19,0,0,1-.36-.66c-.5-1.85,3-4.47,12.37-17,2.21-3,5.21-5.59,6.64-8.94,1.14-2.69,5.67-4.08,5.75-7.52,0-1-.25-1.77.2-1.94,1.14-.45,5.71,3.2,7.8,7.58a15.75,15.75,0,0,1,1.08,9.65A18.67,18.67,0,0,1,111,25.27Z"/><path class="cls-3" d="M111.05,23.83c-.28,1.18-4.12,16.06-18.88,18.86-.75.14-9.37,1.7-11.67-1.12s5.23-5.92,11-18c2.72-5.71,7.67-10.45,10.63-16.06A2.49,2.49,0,0,1,103.94,6c2.09-.21,4.59,3.4,5.07,4.09C112.9,15.64,111.5,22,111.05,23.83Z"/><path class="cls-4" d="M101.88,38.29l-1.83-4.9a.7.7,0,0,1,.6-.94,1.09,1.09,0,0,1,1.2.58c.54,1.29,1.09,2.57,1.63,3.86-.23.22-.47.45-.73.67Z"/><path class="cls-4" d="M110.42,25.93c-.23-.5-2-4.36-2.32-5.22-.08-.21-.19-.54,0-.6s.18,0,.22,0c.47.2,2,3.16,2.62,4.29-.08.28-.16.57-.26.86Z"/><path class="cls-4" d="M88.06,43.26a10.78,10.78,0,0,0-.53-4c-.11-.33-.35-1-.1-1.06s1.15.54,1.52.88A5.15,5.15,0,0,1,90.52,43c-.38.08-.81.15-1.27.21S88.43,43.24,88.06,43.26Z"/><path class="cls-4" d="M103.88,36.51l-2.09-4.87a.41.41,0,0,1,.35-.55.65.65,0,0,1,.71.33l2,4q-.28.33-.6.66Z"/><path class="cls-1" d="M105.82,30.93a18.46,18.46,0,0,0,3.37-13.81c-.58-3.29-2.74-10.07-6.17-10.51s-4.66,5.72-12.25,16.08c-8,11-14.33,14.64-12.32,17.28s9.88,1.7,14.06.62A22.27,22.27,0,0,0,105.82,30.93Z"/><path class="cls-2" d="M105.86,28.78c-1.5,2.69-3.91,7-9.23,9.65-6.75,3.4-17.2,3.75-19.25.88-1.26-1.77,1.64-3.41,11.86-17,2.16-2.87,5-5.44,6.48-8.61,1.12-2.37,2.09-5.39,5.6-7.25,1.14-.6,2-1,3-.82,3.54.82,4.85,9.4,4.35,14.56A22.3,22.3,0,0,1,105.86,28.78Z"/><path class="cls-1" d="M83.3,46.13c-.55-1.59-1.09-3.17-1.64-4.75-.38.66-1,1.78-2,3.12a49,49,0,0,1-5.22,6.43c-2.22,2.32-7.06,8.64-18.73,27-16.12,25.39-18,30.82-24.49,33.32-4.4,1.69-6.87,3.55-11.91,7.16-2.86,2.06-4.73,3.69-4.13,4.71a2.18,2.18,0,0,0,2.2.75c.88-.3.48-1.53,1.07-2.59.94-1.66,3.78-1.93,5.91-2.2a99.3,99.3,0,0,0,12.22-2.38l1.4-.84q12.86-19.11,25.34-38.4Q73.46,61.86,83.3,46.13Z"/><path class="cls-2" d="M82.76,45.55l-2.63-8L78.45,40C74.52,45.5,71.38,49.49,71,50c-6.34,8.14-15.73,27.33-15.73,27.33A57.41,57.41,0,0,0,47.6,87.51c-1.28,2.16-1.11,2.21-3.44,6.84,0,0-7.09,14.06-11.6,15.83-.15,0-1.84.7-4.18,1.68l-.55.23a33.66,33.66,0,0,0-9,5.76c-3.6,3.28-3.79,4-3.58,4.44a2.13,2.13,0,0,0,1.91,1.19c.62-.18.15-1.31.77-2.43a4.66,4.66,0,0,1,2.93-1.92l12.34-2.19a11.52,11.52,0,0,0,4.07-1.82c2.41-1.77,2.57-3.68,5.36-8.46.6-1,1.28-2,1.92-3C51.58,92.35,64,74.06,64,74.06,68.48,67.47,74.9,57.86,82.76,45.55Z"/><path class="cls-4" d="M91.14,21.81l.4.21a.43.43,0,0,0,.56-.09l6.75-9.32a.33.33,0,0,0-.16-.48l-.4-.21a.48.48,0,0,0-.57.09L91,21.34A.32.32,0,0,0,91.14,21.81Z"/><path class="cls-4" d="M90,24.07,89.67,24a.56.56,0,0,1-.41-.68h0a.57.57,0,0,1,.68-.43l.3.07a.56.56,0,0,1,.41.68h0A.58.58,0,0,1,90,24.07Z"/><path class="cls-1" d="M45.21,87.1h0a.27.27,0,0,1-.13-.39L77,42.64a.37.37,0,0,1,.47-.07h0a.28.28,0,0,1,.14.4L45.69,87A.39.39,0,0,1,45.21,87.1Z"/></g></svg>