<svg xmlns="http://www.w3.org/2000/svg" viewBox="0 0 128 128"><defs><style>.cls-1{fill:#29fdc2;}.cls-2,.cls-3{fill:#91e4ce;}.cls-2{stroke:#1d134a;stroke-miterlimit:10;stroke-width:2px;}.cls-4{fill:#1d134a;}.cls-5{fill:#fff;}</style></defs><title>Suction128</title><g id="Layer_11" data-name="Layer 11"><path class="cls-1" d="M68.82,80c3.81-13.14,4.81-18,8.78-21.91a12.92,12.92,0,0,1,5.85-3.45,10,10,0,0,1,5.88,0,8.09,8.09,0,0,1,4.34,3.7c1.41,2.22,1.91,4.79,1.37,9.63a48.47,48.47,0,0,1-3.5,13.28,26.59,26.59,0,0,1-3.3-.87l-.7-.25a59,59,0,0,0,2.61-8.39c1.38-5.93.86-7.92-.05-9.37a5.42,5.42,0,0,0-3.17-2.56,6.36,6.36,0,0,0-4,.35c-1.33.57-2.37,1.6-3.72,4.4a31.36,31.36,0,0,0-2.31,6.75,7.14,7.14,0,0,1-.23.79c-1,3-2.29,7.94-2.29,7.94-1.08,4.37-1.45,5-2.6,9.5-2.35,9.27-3.14,15.83-5.84,21.35a18.7,18.7,0,0,1-4,5.32,13.76,13.76,0,0,1-3.39,2.46A18.2,18.2,0,0,1,54.33,120a19.19,19.19,0,0,1-2.85.34c-1.48-.18-5.8-.89-8.84-4a12.14,12.14,0,0,1-3.14-6.61,17.37,17.37,0,0,1-.19-4.27,35,35,0,0,1,1-6.35c.82-3.88,1.2-4.44,1.84-4.71,1.32-.55,3.1.37,3.9.84a36.35,36.35,0,0,0-1.31,5.39c-.8,4.92-1.57,9.69,1.61,13a8.05,8.05,0,0,0,5.5,2.6,8.65,8.65,0,0,0,5.63-2.36c2.79-2.27,3.81-5.52,4.53-7.88.06-.22.68-2.73,1.67-6.78.72-3,1.43-5.83,1.82-7.36C66.63,87.32,67.39,84.9,68.82,80Z"/><path class="cls-1" d="M58.34,76.56a24.56,24.56,0,0,0,.26-11.88,23.24,23.24,0,0,0-2.06-5.38,13.09,13.09,0,0,0,1.26-7.5C57,46.07,52,41.37,50.08,42c-1.11.36-.66,2.45-3.12,8.33-.17.4-.31.73-.41.94-.42,1.5-1.08,3.77-2,6.52-1.12,3.49-1.69,5.24-2.34,6.85,0,0-4.33,11.27-3.81,13.17,0,0,0,0,0,.12a6.06,6.06,0,0,0-1,4c.6,3,4.39,5,7.31,5.72a13.73,13.73,0,0,0,5,.23,12.63,12.63,0,0,0,3.31-1.11C56.46,85,57.38,80.86,58.34,76.56ZM50.47,60a1.59,1.59,0,0,1-.41-.12,1.48,1.48,0,0,1-.79-2.1A1.88,1.88,0,0,1,51.63,57a1.5,1.5,0,0,1,.8,2.11,1.66,1.66,0,0,1-.44.51.84.84,0,0,1,.31,1.13,1.08,1.08,0,0,1-1.37.43A.86.86,0,0,1,50.47,60ZM44.82,75.49a1.31,1.31,0,0,1-.7-1.84A1.67,1.67,0,0,1,46.19,73a1.3,1.3,0,0,1,.7,1.84A1.64,1.64,0,0,1,44.82,75.49Zm6-10.87a1.3,1.3,0,0,1-.7-1.84,1.64,1.64,0,0,1,2.07-.65,1.31,1.31,0,0,1,.7,1.84A1.65,1.65,0,0,1,50.81,64.62ZM47.59,85a1.8,1.8,0,0,1-1-2.54,2.1,2.1,0,0,1,1-.87,1.47,1.47,0,0,1-.58-2,1.91,1.91,0,0,1,2.39-.75,1.5,1.5,0,0,1,.8,2.12,1.64,1.64,0,0,1-.64.64,1.78,1.78,0,0,1,.88,2.5A2.27,2.27,0,0,1,47.59,85Z"/><path class="cls-1" d="M93.87,93.87,79.3,90a1.88,1.88,0,0,1-1.58-2.14l.7-2.51a2,2,0,0,1,2.47-1.07l.7.18.92-3.32a2.26,2.26,0,0,1,2.33-1.45l.31,0v0a.14.14,0,0,1,0-.07l.6-2.16a.25.25,0,0,1,0-.07h0s0,0,0-.08c.26-.92,2.49-1.14,5-.49s4.31,1.94,4.06,2.86l0,.08a.24.24,0,0,1,0,.08L94.2,82a.25.25,0,0,1,0,.07s0,0,0,0l.28.13a2.16,2.16,0,0,1,1.25,2.39L94.77,88l.7.18A1.89,1.89,0,0,1,97,90.28l-.7,2.51A2,2,0,0,1,93.87,93.87Z"/><path class="cls-1" d="M60.49,85.17h0a1.46,1.46,0,0,0,.07-.19l15-46,.3-.92c2.87,0,4.75-.53,5.07-1.5l0-.11L81,36.3a1.8,1.8,0,0,0,.08-.21l1.13-3.48a1.86,1.86,0,0,0-.29-1.71h0c-.81-1.59-6-4-13-6l1.47-4.54c3.14,0,5.56-.82,6.24-2.3L83,19.63a3.17,3.17,0,0,0,3.79-1.9L87.64,15a2.68,2.68,0,0,0-2.08-3.37L52.44,3.41a3.18,3.18,0,0,0-3.79,1.91l-.89,2.74a2.67,2.67,0,0,0,2.08,3.36L56.16,13c-.38,1.94,2.13,4.25,6,5.78l-1.35,4.17c-6.55-1.3-11.87-1.6-13.6-.75h0a2.23,2.23,0,0,0-1.46,1.39l-1.13,3.47a1.05,1.05,0,0,0-.06.24s0,0,0,0a1.21,1.21,0,0,0-.09.2c-.32,1,1,2.3,3.54,3.68l-.3.91-14.95,46a2.64,2.64,0,0,0-.11.53,5.54,5.54,0,0,0-.17.58c-1.08,4.16,1.4,8.41,5.88,11L38,91.57a2.71,2.71,0,0,0,2.29,3.25l1,.19-.76,2.91a2,2,0,0,0,1.7,2.41,2.33,2.33,0,0,0,2.72-1.55l.75-2.91,1,.18A3.15,3.15,0,0,0,50.31,94l.43-1.67C55.46,91.48,59.28,88.86,60.49,85.17Zm9.9-47.58L55.45,84c-.93,2.88-5.58,4.26-10.4,3.09s-8-4.47-7-7.36L52.87,33.3ZM44,89.3C38,87.81,34,83.68,34.58,79.81a0,0,0,0,0,0,0,.36.36,0,0,1,0-.11s0,0,0-.06L35,78.48l15-45.3a1.08,1.08,0,0,1,.74-.67l.94.4L36.44,80.32a2.89,2.89,0,0,0-.15.81s0,0,0,0c-.2,2.89,3.36,5.89,8.49,7S54.84,88,56.4,85.33a3.15,3.15,0,0,0,.34-.75l15-46.72c.45,0,.88.08,1.3.11a.88.88,0,0,1,.27,1l-15,45.33L58,85.37h0a1.24,1.24,0,0,1-.1.2C56,89.13,50.09,90.79,44,89.3Z"/><path class="cls-2" d="M69.05,80.84c3.81-13.14,4.82-18,8.79-21.92a12.91,12.91,0,0,1,5.84-3.45,10.15,10.15,0,0,1,5.89,0,8.14,8.14,0,0,1,4.33,3.7c1.41,2.22,1.91,4.79,1.37,9.64A48.33,48.33,0,0,1,91.77,82a24.94,24.94,0,0,1-3.3-.87l-.69-.24a60.86,60.86,0,0,0,2.61-8.4c1.37-5.93.85-7.92-.06-9.37a5.42,5.42,0,0,0-3.17-2.55,6.34,6.34,0,0,0-4,.34c-1.34.58-2.37,1.6-3.73,4.41a31.75,31.75,0,0,0-2.31,6.75,5.58,5.58,0,0,1-.22.78c-1,3-2.3,8-2.3,8-1.08,4.36-1.44,5-2.6,9.49-2.35,9.27-3.14,15.84-5.83,21.35a18.54,18.54,0,0,1-4,5.32,13.93,13.93,0,0,1-3.39,2.47,18.73,18.73,0,0,1-4.25,1.38,18,18,0,0,1-2.84.34c-1.48-.18-5.81-.89-8.85-4a12.16,12.16,0,0,1-3.14-6.62,17.37,17.37,0,0,1-.19-4.27,35,35,0,0,1,1-6.35c.82-3.88,1.2-4.44,1.84-4.71,1.32-.55,3.11.37,3.9.84a36.88,36.88,0,0,0-1.3,5.39c-.8,4.92-1.58,9.69,1.6,13a8,8,0,0,0,5.5,2.61,8.73,8.73,0,0,0,5.63-2.36c2.79-2.27,3.81-5.53,4.53-7.89.06-.22.69-2.72,1.67-6.77.72-3,1.43-5.83,1.83-7.37C66.86,88.19,67.62,85.76,69.05,80.84Z"/><path class="cls-3" d="M58.72,77.14A24.53,24.53,0,0,0,59,65.26a23.42,23.42,0,0,0-2.06-5.38,13.14,13.14,0,0,0,1.25-7.49c-.82-5.74-5.83-10.43-7.71-9.81-1.12.37-.67,2.46-3.13,8.34-.16.4-.31.73-.4.93-.43,1.5-1.09,3.77-2,6.52-1.12,3.5-1.68,5.24-2.33,6.85,0,0-4.34,11.28-3.82,13.18,0,0,0,0,0,.12a6,6,0,0,0-1,4c.59,3,4.39,5,7.31,5.71a13.29,13.29,0,0,0,5,.23,13,13,0,0,0,3.31-1.1C56.85,85.57,57.77,81.44,58.72,77.14ZM50.86,60.56a2.77,2.77,0,0,1-.41-.12,1.5,1.5,0,0,1-.8-2.11A1.88,1.88,0,0,1,52,57.59a1.49,1.49,0,0,1,.8,2.1,1.58,1.58,0,0,1-.45.51.85.85,0,0,1,.32,1.14,1.1,1.1,0,0,1-1.37.43A.86.86,0,0,1,50.86,60.56ZM45.21,76.08a1.3,1.3,0,0,1-.7-1.84,1.64,1.64,0,0,1,2.07-.65,1.31,1.31,0,0,1,.7,1.84A1.65,1.65,0,0,1,45.21,76.08Zm6-10.87a1.3,1.3,0,0,1-.69-1.84,1.63,1.63,0,0,1,2.06-.65,1.3,1.3,0,0,1,.7,1.84A1.67,1.67,0,0,1,51.19,65.21ZM48,85.54A1.8,1.8,0,0,1,47,83a2.08,2.08,0,0,1,1-.87,1.49,1.49,0,0,1-.57-2,1.89,1.89,0,0,1,2.38-.74,1.5,1.5,0,0,1,.81,2.12,1.78,1.78,0,0,1-.64.64,1.79,1.79,0,0,1,.88,2.5A2.28,2.28,0,0,1,48,85.54Z"/><path class="cls-4" d="M91.63,52s0,0,0,.06h-.34Z"/><path class="cls-4" d="M101.68,54.6a1.4,1.4,0,0,0-.3-.15l0-.05A2.69,2.69,0,0,1,101.68,54.6Z"/><path class="cls-4" d="M94.26,94.46,79.68,90.63a1.91,1.91,0,0,1-1.58-2.14L78.8,86a2,2,0,0,1,2.48-1.08l.69.18.93-3.32a2.25,2.25,0,0,1,2.32-1.45l.31,0a.06.06,0,0,1,0,0,.17.17,0,0,1,0-.07l.6-2.15,0-.07h0s0-.06,0-.09c.26-.92,2.49-1.14,5-.48s4.31,1.94,4,2.86a.16.16,0,0,1,0,.08.17.17,0,0,1,0,.07l-.6,2.15a.64.64,0,0,1,0,.07.08.08,0,0,0,0,0l.27.13a2.18,2.18,0,0,1,1.26,2.4l-.92,3.31.69.19a1.9,1.9,0,0,1,1.58,2.14l-.7,2.51A2,2,0,0,1,94.26,94.46Z"/><path class="cls-5" d="M74.41,55.32l.09-.19Z"/><path class="cls-4" d="M60.87,85.76h0c0-.06,0-.12.07-.19l15-46,.3-.91c2.87,0,4.75-.54,5.07-1.51l0-.11.07-.15.09-.21L82.6,33.2a1.91,1.91,0,0,0-.3-1.72h0c-.81-1.59-6-4-13-6l1.48-4.55c3.13,0,5.55-.82,6.23-2.29l6.32,1.57a3.18,3.18,0,0,0,3.8-1.91L88,15.57A2.68,2.68,0,0,0,86,12.21L52.83,4A3.19,3.19,0,0,0,49,5.9l-.89,2.74A2.68,2.68,0,0,0,50.23,12l6.32,1.56c-.38,1.94,2.12,4.26,6,5.78l-1.36,4.17c-6.55-1.3-11.87-1.6-13.6-.75h0a2.27,2.27,0,0,0-1.46,1.39L45,27.64l-.06.23v.05a.66.66,0,0,0-.09.19c-.32,1,1,2.31,3.53,3.68l-.3.92-14.94,46a2.08,2.08,0,0,0-.11.54q-.11.29-.18.57c-1.08,4.16,1.41,8.41,5.89,11l-.37,1.4a2.72,2.72,0,0,0,2.29,3.26l1,.18-.75,2.92a2,2,0,0,0,1.69,2.4,2.32,2.32,0,0,0,2.72-1.54l.76-2.92,1,.19a3.13,3.13,0,0,0,3.67-2.09l.44-1.68C55.85,92.07,59.67,89.44,60.87,85.76Zm9.91-47.59q-7.48,23.19-15,46.37c-.92,2.88-5.58,4.26-10.39,3.08s-8-4.47-7-7.35L53.25,33.88ZM44.42,89.89C38.36,88.4,34.33,84.26,35,80.4v0s0-.07,0-.11a.14.14,0,0,0,0-.06l.38-1.14,15-45.3a1,1,0,0,1,.74-.67l.94.39L36.83,80.91a3.16,3.16,0,0,0-.16.8h0c-.19,2.89,3.37,5.9,8.49,7s10.07-.15,11.63-2.77a3.46,3.46,0,0,0,.34-.76l15-46.71,1.3.11a.89.89,0,0,1,.27.95l-15,45.32L58.34,86h0l-.1.2C56.41,89.71,50.47,91.38,44.42,89.89Z"/><path class="cls-5" d="M43.1,107.8a1.58,1.58,0,0,1-2,.63,1.24,1.24,0,0,1-.64-1.76,1.45,1.45,0,0,1,.74-.64.76.76,0,0,1,0-.73,1,1,0,0,1,1.26-.41.81.81,0,0,1,.41,1.13,1,1,0,0,1-.16.2A1.22,1.22,0,0,1,43.1,107.8Z"/><ellipse class="cls-5" cx="86.98" cy="57.88" rx="0.89" ry="0.8" transform="translate(-6.93 12.1) rotate(-7.65)"/><ellipse class="cls-5" cx="55.53" cy="118.69" rx="0.81" ry="0.73" transform="translate(-15.31 8.45) rotate(-7.65)"/><path class="cls-5" d="M66.07,109.13a1.62,1.62,0,0,1-2,.65,1.28,1.28,0,0,1-.67-1.81,1.58,1.58,0,0,1,1.44-.78.63.63,0,0,1,0-.72.84.84,0,0,1,1-.34.67.67,0,0,1,.35.94.78.78,0,0,1-.51.38A1.26,1.26,0,0,1,66.07,109.13Z"/><path class="cls-5" d="M70.59,88.91a1.33,1.33,0,0,1-1.68.54,1,1,0,0,1-.55-1.5.8.8,0,0,1,.13-.19,1,1,0,0,1,0-1,1.26,1.26,0,0,1,1.58-.5,1,1,0,0,1,.52,1.41.61.61,0,0,1-.07.1A1,1,0,0,1,70.59,88.91Z"/><ellipse class="cls-5" cx="91.72" cy="74.15" rx="0.54" ry="0.49" transform="translate(-9.06 12.88) rotate(-7.65)"/><path class="cls-5" d="M93.91,87.32a.35.35,0,0,1-.24-.22.8.8,0,0,1,.13-.64c.27-.6.46-1.22.72-1.81a.21.21,0,0,1,.1-.12.25.25,0,0,1,.17,0c.07,0,.13.16.15.24a6.09,6.09,0,0,1-.45,1.76c0,.14-.12.36-.19.63A.43.43,0,0,1,93.91,87.32Z"/><path class="cls-5" d="M85,88.76A7.94,7.94,0,0,1,82.17,88a7.25,7.25,0,0,1-1.72-1.18.29.29,0,0,1-.11-.43.39.39,0,0,1,.48-.12,7.21,7.21,0,0,0,1.86,1.12,7.53,7.53,0,0,0,2.2.55c.42,0,.7.26.67.47S85.28,88.75,85,88.76Z"/><ellipse class="cls-1" cx="64.36" cy="29.16" rx="2.97" ry="17.88" transform="translate(20.56 84.6) rotate(-76.07)"/><path class="cls-4" d="M63.51,31.52C54,29.26,46.8,26.22,47.33,24.73s8.63-.86,18.1,1.4,16.71,5.3,16.18,6.79S73,33.78,63.51,31.52Z"/><path class="cls-1" d="M84.31,19.13,50.45,10.65a1,1,0,0,1-.79-1.32l1.23-3.68a1.27,1.27,0,0,1,1.49-.76l33.86,8.49A1,1,0,0,1,87,14.7L85.8,18.38A1.25,1.25,0,0,1,84.31,19.13Z"/><ellipse class="cls-1" cx="68.6" cy="16.51" rx="3.43" ry="8.05" transform="translate(37.01 79.6) rotate(-76.93)"/><path class="cls-1" d="M67.33,25.67l-4.6-1.16a1.24,1.24,0,0,1-1-1.59L63.42,18a1.5,1.5,0,0,1,1.79-.9l4.61,1.15a1.25,1.25,0,0,1,1,1.59l-1.65,4.92A1.51,1.51,0,0,1,67.33,25.67Z"/><path class="cls-4" d="M84.06,18.84l-8.29-2.05A1.88,1.88,0,0,1,76,18.46c-.48,1.28-2.7,1.89-5.54,1.7l-2.06,6.05a1,1,0,0,1-1.16.6l-5.52-1.36a.81.81,0,0,1-.61-1l2.12-6.25c-2.44-1.28-3.84-2.9-3.36-4.19a1.47,1.47,0,0,1,.1-.22l-.1,0-10.4-2.6a.76.76,0,0,1-.58-1L49,10a.68.68,0,0,1,.17-.21A1.06,1.06,0,0,1,49.1,9l1.21-3.57a1.36,1.36,0,0,1,1.59-.83L86,13a1.1,1.1,0,0,1,.83,1.42L85.66,18A1.35,1.35,0,0,1,84.06,18.84Z"/><path class="cls-5" d="M83.27,15l-4.91-.82a13.81,13.81,0,0,1-2.58-.91L75.29,13,75,12.65a.73.73,0,0,1-.06-.81.85.85,0,0,1,.51-.36L83.7,13.4a.8.8,0,0,1,.66,1h0A.93.93,0,0,1,83.27,15Z"/><path class="cls-5" d="M72.71,12.4h0a.66.66,0,0,1-.36-.93l0-.05a.84.84,0,0,1,1-.32h0a.67.67,0,0,1,.37.93l0,.05A.85.85,0,0,1,72.71,12.4Z"/><path class="cls-1" d="M47,95.76l-1.05-.2s0,0,0,.08L45,98.84a1.8,1.8,0,0,1-2.1,1.2,1.53,1.53,0,0,1-1.27-1.86L42.52,95a.19.19,0,0,1,0-.07l-.68-.14a2.14,2.14,0,0,1-1.79-2.62v0a2.55,2.55,0,0,1,3-1.69l5.1,1A2.17,2.17,0,0,1,49.94,94l0,0A2.54,2.54,0,0,1,47,95.76Z"/><path class="cls-4" d="M47.06,95.45l-1.44-.28a1.33,1.33,0,0,1,0,.34l-.86,3.11a1.87,1.87,0,0,1-2.18,1.24,1.59,1.59,0,0,1-1.31-1.94L42,95l-1.21-.52a1.06,1.06,0,0,1-.48-.4A1.76,1.76,0,0,1,39.14,92l.14-.51a2.12,2.12,0,0,1,2.46-1.4l6.45,1.3a1.78,1.78,0,0,1,1.47,2.18l-.14.51A2.11,2.11,0,0,1,47.06,95.45Z"/><path class="cls-4" d="M48,64.65l-2.41-.56a.46.46,0,0,1-.37-.58h0a.56.56,0,0,1,.66-.34l2.41.56a.46.46,0,0,1,.37.58h0A.56.56,0,0,1,48,64.65Z"/><path class="cls-4" d="M48.68,62.33l-2.42-.56a.46.46,0,0,1-.36-.58h0a.55.55,0,0,1,.65-.34L49,61.4a.46.46,0,0,1,.36.58h0A.55.55,0,0,1,48.68,62.33Z"/><path class="cls-4" d="M51.36,60.64l-4.41-1a.47.47,0,0,1-.37-.58h0a.56.56,0,0,1,.66-.35l4.41,1a.46.46,0,0,1,.36.58h0A.55.55,0,0,1,51.36,60.64Z"/><path class="cls-4" d="M49,67.44l-4.41-1a.45.45,0,0,1-.36-.58h0a.55.55,0,0,1,.65-.34l4.41,1a.46.46,0,0,1,.37.58h0A.56.56,0,0,1,49,67.44Z"/><path class="cls-4" d="M45.75,71.69l-2.41-.55a.47.47,0,0,1-.37-.58h0a.56.56,0,0,1,.66-.35l2.41.56a.46.46,0,0,1,.37.58h0A.56.56,0,0,1,45.75,71.69Z"/><path class="cls-4" d="M46.48,69.37l-2.42-.56a.45.45,0,0,1-.36-.58h0a.55.55,0,0,1,.65-.34l2.42.56a.45.45,0,0,1,.36.58h0A.55.55,0,0,1,46.48,69.37Z"/><path class="cls-4" d="M46.76,74.43l-4.42-1a.46.46,0,0,1-.36-.58h0a.55.55,0,0,1,.65-.35l4.41,1a.47.47,0,0,1,.37.58h0A.56.56,0,0,1,46.76,74.43Z"/><path class="cls-4" d="M43.61,78.56,41.19,78a.46.46,0,0,1-.36-.58h0a.55.55,0,0,1,.65-.34l2.42.56a.45.45,0,0,1,.36.58h0A.55.55,0,0,1,43.61,78.56Z"/><path class="cls-4" d="M44.34,76.24l-2.42-.56a.46.46,0,0,1-.36-.58h0a.54.54,0,0,1,.65-.34l2.41.55a.47.47,0,0,1,.37.58h0A.55.55,0,0,1,44.34,76.24Z"/><path class="cls-4" d="M50.36,58.2l-2.42-.56a.45.45,0,0,1-.36-.58h0a.55.55,0,0,1,.65-.34l2.42.56a.45.45,0,0,1,.36.58h0A.55.55,0,0,1,50.36,58.2Z"/><path class="cls-4" d="M51,56.1l-2.42-.55a.46.46,0,0,1-.36-.58h0a.55.55,0,0,1,.65-.35l2.41.56a.46.46,0,0,1,.37.58h0A.55.55,0,0,1,51,56.1Z"/><path class="cls-4" d="M53.79,54l-4.41-1a.47.47,0,0,1-.37-.58h0a.56.56,0,0,1,.66-.34l4.41,1a.47.47,0,0,1,.37.58h0A.56.56,0,0,1,53.79,54Z"/><path class="cls-4" d="M52.88,51.43l-2.41-.56a.47.47,0,0,1-.37-.58h0a.56.56,0,0,1,.66-.35l2.41.56a.48.48,0,0,1,.37.58h0A.56.56,0,0,1,52.88,51.43Z"/><path class="cls-4" d="M53.54,49.33l-2.42-.56a.45.45,0,0,1-.36-.58h0a.55.55,0,0,1,.65-.34l2.42.55a.46.46,0,0,1,.36.58h0A.55.55,0,0,1,53.54,49.33Z"/></g></svg>