<svg xmlns="http://www.w3.org/2000/svg" viewBox="0 0 128 128"><defs><style>.cls-1{fill:#fff;}.cls-2,.cls-5{fill:#91e4ce;}.cls-3{fill:#29fdc2;}.cls-4{fill:#1d134a;}.cls-5,.cls-6{stroke:#1d134a;stroke-miterlimit:10;}.cls-5{stroke-width:2px;}.cls-6{fill:none;stroke-width:3px;}</style></defs><title>Sutures128</title><g id="Layer_8" data-name="Layer 8"><rect class="cls-1" x="56.26" y="6.24" width="0.97" height="0.81" rx="0.4"/><path class="cls-2" d="M85.13,61.56v.26a7.47,7.47,0,0,0-.65-3A6.31,6.31,0,0,1,85.13,61.56Z"/><path class="cls-3" d="M80.4,45.25a13.36,13.36,0,0,0-6.22,2.48c-1.58,1.22-1.57,2-3.48,3.37a13,13,0,0,1-5.23,2.48,12.53,12.53,0,0,1-7.34-.45c-1.39-.61-2.65-1.62-3.86-1.24-.51.16-.63.44-1.42.64a3.18,3.18,0,0,1-2.09-.05,2.1,2.1,0,0,1-1.14-1.3,4.91,4.91,0,0,1,1.2-3.9,7,7,0,0,1,3.79-2.15,2.55,2.55,0,0,1,2.2.39,1.64,1.64,0,0,1,.36,2.24,7.43,7.43,0,0,0,3.07,1.66,8.35,8.35,0,0,0,3.07.22,6.42,6.42,0,0,0,2.84-.9,5,5,0,0,0,1.67-1.66,8.61,8.61,0,0,1,1.35-1.68,12,12,0,0,1,2.66-1.84A22.2,22.2,0,0,1,76,41.65a19.11,19.11,0,0,1,6.49-.86l3.34.64a11,11,0,0,1,5.77,3.62,8.31,8.31,0,0,1,1.56,4.65,15.48,15.48,0,0,1-1.86,8.36c-1.32,2.78-3.37,7.15-5.92,9.66-.39.38-1.25,1.17-1.13,2.14s1.16,1.19,1.35,2.29a2.67,2.67,0,0,1-1.14,2.47,4.53,4.53,0,0,1-2.78.75c-2.79,0-5.63-1.76-6.27-3.93a2.65,2.65,0,0,1,0-1.66c.53-1.56,2.68-2.24,3.69-2.66,3.29-1.35,4.74-4.14,7.46-9.39,1.91-3.68,3.09-6,2-8.53a6.21,6.21,0,0,0-3.36-3.5A8.41,8.41,0,0,0,80.4,45.25Z"/><path class="cls-3" d="M83.61,73a9.43,9.43,0,0,0-8.8-3.86,4.65,4.65,0,0,0-3.16,1.5,3.17,3.17,0,0,0,.54,3.83L68,77.59a52.82,52.82,0,0,0-7.63,9,53.48,53.48,0,0,0-6.24,13.46,45.66,45.66,0,0,0-1.08,4.86,38.56,38.56,0,0,0-.48,5.15c.05,1.33.09,2.67.14,4,1.15,5,4.81,7.94,7.75,7.69a5.3,5.3,0,0,0,3.52-2l.06-2a10.16,10.16,0,0,1-2.11-1.6c-1.91-1.92-2.32-4-2.69-6.07a17.3,17.3,0,0,1,0-5.74,35.2,35.2,0,0,1,1.14-4.65,39.8,39.8,0,0,1,4.85-10,24.69,24.69,0,0,1,9-8.75,26.66,26.66,0,0,1,3-1.5c3.38.45,6.29-.6,7.18-2.35C85.19,75.47,84.11,73.82,83.61,73Zm-1.93,3.45c-.85.84-3.12.41-5.07-1s-2.83-3.17-2-4,3.13-.4,5.07,1S82.54,75.66,81.68,76.49Z"/><path class="cls-3" d="M61.19,15.32a1.83,1.83,0,0,0-.81-.41l-6.22,3.34c-.3-.56-.75-1.33-1.35-2.22a27,27,0,0,0-4-4.69c-.94-.84-5.72-5.07-11.31-4.42-4.81.55-7.55,4.4-8.75,6.07-4.21,5.9-2.49,12.65-1.82,15.29a23.32,23.32,0,0,0,1.27,3.66s.4,1,.84,1.95c1.76,3.8,5.37,11.57,13.55,14.41a19.58,19.58,0,0,0,3.11.79A3.24,3.24,0,0,0,47,52.9c1.8,1.24,4.2.53,4.82.34A7.73,7.73,0,0,0,56,49.8a10.41,10.41,0,0,0,1.77-4,3.48,3.48,0,0,0-2.37-3.24,4.85,4.85,0,0,0-4.73.68,46.16,46.16,0,0,1-11-12.79,39.4,39.4,0,0,1-4-10.17c-1.41-3.38-.68-6.17,1-6.82a3.63,3.63,0,0,1,2.71.22A31.52,31.52,0,0,1,44.1,17c4.39,3.84,4.63,6.37,7.58,7,3.33.73,6.54-1.74,6.94-2.06C61.08,20,62.54,16.55,61.19,15.32ZM49.31,47.11c1.28-1.85,3.28-2.9,4.46-2.33s1.09,2.53-.19,4.38-3.29,2.9-4.47,2.33S48,49,49.31,47.11Z"/><path class="cls-4" d="M84.75,72.51a9.43,9.43,0,0,0-8.81-3.86,4.61,4.61,0,0,0-3.15,1.5c-.74,1.07-.51,2.54.54,3.83l-4.18,3.07A49.76,49.76,0,0,0,55.28,99.52a43.1,43.1,0,0,0-1.08,4.85,38.71,38.71,0,0,0-.48,5.15c0,1.34.09,2.67.13,4,1.16,5,4.81,7.94,7.76,7.69a5.36,5.36,0,0,0,3.51-2l.06-2a10.05,10.05,0,0,1-2.1-1.6c-1.91-1.91-2.32-4-2.69-6.06a17.26,17.26,0,0,1,0-5.74,37,37,0,0,1,1.15-4.65,39.14,39.14,0,0,1,4.85-10,24.62,24.62,0,0,1,9-8.75,25.74,25.74,0,0,1,3-1.5c3.39.45,6.29-.61,7.19-2.35C86.32,74.94,85.25,73.28,84.75,72.51ZM82.82,76c-.86.84-3.13.4-5.07-1s-2.83-3.18-2-4,3.13-.41,5.07,1S83.68,75.12,82.82,76Z"/><path class="cls-4" d="M62.33,14.79a2,2,0,0,0-.81-.42L55.3,17.71c-.31-.55-.75-1.32-1.36-2.21a27.38,27.38,0,0,0-4-4.69C49,10,44.21,5.74,38.61,6.38c-4.8.56-7.55,4.41-8.74,6.08-4.21,5.89-2.49,12.65-1.82,15.29a24.38,24.38,0,0,0,1.26,3.65s.41,1,.84,2c1.77,3.8,5.37,11.58,13.56,14.42a19.58,19.58,0,0,0,3.11.79,3.24,3.24,0,0,0,1.35,3.81c1.8,1.24,4.21.52,4.83.34a7.77,7.77,0,0,0,4.16-3.44,10.47,10.47,0,0,0,1.77-4.05A3.5,3.5,0,0,0,56.56,42a4.87,4.87,0,0,0-4.74.68,46,46,0,0,1-11-12.79,39,39,0,0,1-4-10.17c-1.42-3.38-.68-6.17,1-6.83a3.68,3.68,0,0,1,2.7.23,30.81,30.81,0,0,1,4.69,3.37c4.39,3.84,4.63,6.38,7.58,7,3.33.72,6.53-1.74,6.94-2.06C62.22,19.48,63.68,16,62.33,14.79ZM50.45,46.58c1.28-1.86,3.28-2.9,4.46-2.34s1.09,2.53-.2,4.39-3.28,2.9-4.46,2.33S49.16,48.43,50.45,46.58Z"/><path class="cls-5" d="M81.53,44.72a13.46,13.46,0,0,0-6.22,2.48c-1.57,1.21-1.56,2-3.47,3.37a13,13,0,0,1-5.23,2.48,12.56,12.56,0,0,1-7.35-.45C57.87,52,56.62,51,55.41,51.36c-.51.15-.63.44-1.42.64a3.18,3.18,0,0,1-2.09,0,2.09,2.09,0,0,1-1.14-1.3,4.91,4.91,0,0,1,1.2-3.9,7.12,7.12,0,0,1,3.79-2.16A2.55,2.55,0,0,1,58,45a1.63,1.63,0,0,1,.36,2.23,7.14,7.14,0,0,0,3.07,1.66,8.4,8.4,0,0,0,3.07.23,6.46,6.46,0,0,0,2.84-.9A5,5,0,0,0,69,46.54a8.64,8.64,0,0,1,1.36-1.67A11.61,11.61,0,0,1,73,43a21.3,21.3,0,0,1,4.15-1.91,19.07,19.07,0,0,1,6.49-.86l3.33.63a11,11,0,0,1,5.77,3.63,8.31,8.31,0,0,1,1.57,4.65,15.35,15.35,0,0,1-1.87,8.35c-1.31,2.79-3.37,7.16-5.92,9.67-.38.38-1.24,1.17-1.12,2.14s1.15,1.18,1.35,2.28a2.69,2.69,0,0,1-1.14,2.48,4.55,4.55,0,0,1-2.78.75c-2.8,0-5.63-1.77-6.27-3.94a2.6,2.6,0,0,1,0-1.65c.54-1.57,2.69-2.24,3.7-2.66,3.29-1.36,4.73-4.15,7.46-9.39,1.9-3.68,3.09-6,2-8.53a6.25,6.25,0,0,0-3.37-3.5A8.23,8.23,0,0,0,81.53,44.72Z"/><path class="cls-3" d="M43.88,13.33c-1.94-1.89-4.47-2.73-6.4-2.13a4.54,4.54,0,0,0-2.57,2.28c-.58,1-1.24,2.82.46,8.35a42.13,42.13,0,0,0,2.09,5.47c2.83,5.95,6.17,9.7,5.89,9.86-.11.06-.87-.56-3.89-3.8a30.6,30.6,0,0,1-4.23-7.48,27.31,27.31,0,0,1-1.84-10.55A6,6,0,0,1,38.51,10c3.76-.47,6.36,3.14,6.83,3.79.67.93,1.18,2.1,1,2.18S44.91,14.63,43.88,13.33Z"/><path class="cls-3" d="M59.29,21c.07-.08.15-.18.11-.23-.19-.23-2.61,1.75-5.12,1.52-2.1-.19-3.72-1.89-3.92-1.71,0,0,0,.18.11.29a4.4,4.4,0,0,0,.45.63A5.27,5.27,0,0,0,53.31,23l1.35.12A10.75,10.75,0,0,0,58,21.85,9.87,9.87,0,0,0,59.29,21Z"/><path class="cls-3" d="M74.9,78.11c-.31-.23-2.94,1.74-4.39,2.9a36.85,36.85,0,0,0-7.21,7.56,35.76,35.76,0,0,0-5,11.1s-2.68,9.42-.24,14a2.93,2.93,0,0,0,1.86,1.65s.64.11.78-.1-.46-.85-1.08-1.35a19.41,19.41,0,0,1-1-2.85C57,104.83,59,99.75,60.53,96a31.92,31.92,0,0,1,9.68-13.56A35.92,35.92,0,0,1,73.7,80C74.36,79.19,75.09,78.26,74.9,78.11Z"/><path class="cls-1" d="M28.81,20.91c-.25,0-.56-3.47,1.08-7a14.32,14.32,0,0,1,1.8-2.85l2.17-1.95a6.63,6.63,0,0,1,2.75-1.42,5.06,5.06,0,0,1,2.57-.15c0,.06-.22.2-1.44.52a11.33,11.33,0,0,0-1.67.71,10,10,0,0,0-2.93,2.37,19.18,19.18,0,0,0-3.56,6.71C29.12,20.36,28.91,20.92,28.81,20.91Z"/><path class="cls-1" d="M63.19,119.35c.08.12-.72.81-1.75.93a4.67,4.67,0,0,1-3.17-1.21,6.31,6.31,0,0,1-1.1-1,6.85,6.85,0,0,1-1-1.46c-.68-1.34-.8-2.76-.62-2.8s.34.33,1,2a6.45,6.45,0,0,0,3,3.33,7.48,7.48,0,0,0,1.93.72C62.77,119.34,63.15,119.28,63.19,119.35Z"/><line class="cls-6" x1="55.41" y1="51.36" x2="58.31" y2="47.22"/><line class="cls-6" x1="85.37" y1="69.33" x2="80.18" y2="66.59"/></g></svg>