<svg xmlns="http://www.w3.org/2000/svg" viewBox="0 0 128 128"><defs><style>.cls-1{fill:#29fdc2;}.cls-2{fill:#fff;}.cls-3{fill:#1d134a;}.cls-4{fill:#91e4ce;}.cls-5{fill:#25a9e0;}.cls-6{fill:#be1e2d;}</style></defs><title>Syringe128</title><g id="Layer_5" data-name="Layer 5"><polygon class="cls-1" points="78.73 5.53 74.86 9.58 79.86 11.17 78.73 5.53"/><polygon class="cls-1" points="79.86 11.17 74.86 9.53 71.99 19.82 77 21.46 79.86 11.17"/><path class="cls-1" d="M66.67,91.78,82.09,36.45h0l-5.68-6h0l2.3-8.27-8.21-2.7-2.13,7.63L59.29,29l-.11,0L43.82,84c-4.94.18-8.57,1.86-9.4,4.82-1.07,3.86,2.93,8.76,9.5,12.34l-1.31,4.71c-4.87-.5-8.66.63-9.36,3.14-1,3.47,4.27,8.25,11.7,10.68s14.22,1.59,15.18-1.87c.7-2.52-1.87-5.73-6.18-8.24l1.22-4.39c8.26,1.61,15.15,0,16.32-4.22C72.28,98.18,70.35,94.8,66.67,91.78Zm-1.84-2.46c-1.36,4.61-6.5,7-11.53,5.35s-8.07-6.75-6.83-11.41l0-.1h0L61,31.54v0l.1,0,10.56-2.23,7.63,8.23.08.09h0L64.87,89.2Z"/><path class="cls-1" d="M71.44,31.48l-9,1.84L47.89,83.83s0,0,0,.08c-.87,3.19,1.79,6.91,6,8.34s8.34,0,9.31-3.15h0l0-.11L77.78,38.52h0ZM61.85,88.32s0,0,0,0l-.12.41h0c-.84,2.23-4.08,3.13-7.41,2s-5.52-3.87-5-6.22h0l.12-.44L63.75,34.53h0l7.16-1.19,5.24,5.41h0Z"/><path class="cls-2" d="M46.19,83.79l0-.1a.36.36,0,0,0,0,.1Z"/><path class="cls-2" d="M64.56,89.85l0-.12,0,.12Z"/><polygon class="cls-3" points="78.79 6.37 74.84 10.31 79.86 11.96 78.79 6.37"/><polygon class="cls-3" points="79.86 11.94 74.86 10.3 71.99 20.59 77 22.23 79.86 11.94"/><path class="cls-3" d="M66.67,92.28,82.09,37h0l-5.68-6h0l2.3-8.27L70.54,20l-2.13,7.63-9.12,1.9-.11,0L43.82,84.54c-4.94.19-8.57,1.86-9.4,4.82-1.07,3.86,2.93,8.76,9.5,12.34l-1.31,4.72c-4.87-.51-8.66.62-9.36,3.13-1,3.47,4.27,8.25,11.7,10.68s14.22,1.59,15.18-1.87c.7-2.52-1.87-5.73-6.18-8.23l1.22-4.39c8.26,1.6,15.15,0,16.32-4.23C72.28,98.68,70.35,95.3,66.67,92.28Zm-1.84-2.46c-1.36,4.61-6.5,7-11.53,5.35s-8.07-6.74-6.83-11.4l0-.11h0L61,32v0l.1,0,10.56-2.23L79.26,38l.08.09v0L64.87,89.7Z"/><path class="cls-1" d="M66.27,56.63A5.9,5.9,0,0,0,67.9,52.5,5.6,5.6,0,0,0,63.79,47a25.24,25.24,0,0,0,1-4c.76-4.4.37-8.17-.86-8.43S61.09,37.62,60.33,42c-.13.79-.24,1.56-.3,2.3l-.4-.09L58,50l-.48,1.68-1.84,6.39L54,63.66,49,81.22v0l-.23.8a8.27,8.27,0,0,0-.21,1.88,8.52,8.52,0,0,0,.09,1.24,7.51,7.51,0,0,0,15-1.24,8,8,0,0,0-.18-1.71l.26.09,4.59-16.44-.13-.05a3.68,3.68,0,0,0,.15-.47A9,9,0,0,0,66.27,56.63ZM58,86a2.69,2.69,0,1,1,2.15-2.63A2.43,2.43,0,0,1,58,86Zm4.14-32.94a1.07,1.07,0,1,1-1,1.06A1,1,0,0,1,62.14,53.08Zm.62,6.86a1.61,1.61,0,1,1,1.48-1.61A1.55,1.55,0,0,1,62.76,59.94Z"/><path class="cls-4" d="M66.83,57.29a5.9,5.9,0,0,0,1.64-4.13,5.6,5.6,0,0,0-4.11-5.54,25.28,25.28,0,0,0,1-4c.77-4.4.38-8.18-.86-8.43s-2.86,3.11-3.62,7.51c-.14.79-.24,1.56-.3,2.3l-.41-.09-1.66,5.77L58,52.34,56.2,58.73l-1.61,5.59L49.53,81.88v0l-.23.8a7.74,7.74,0,0,0-.22,1.88,8.52,8.52,0,0,0,.09,1.24,7.51,7.51,0,0,0,15-1.24,8,8,0,0,0-.18-1.71l.26.09,4.6-16.44-.13,0,.15-.47A9.07,9.07,0,0,0,66.83,57.29ZM58.56,86.68a2.69,2.69,0,1,1,2.15-2.63A2.43,2.43,0,0,1,58.56,86.68ZM62.7,53.74a1.06,1.06,0,1,1-1,1.06A1,1,0,0,1,62.7,53.74Zm.62,6.86A1.61,1.61,0,1,1,64.8,59,1.55,1.55,0,0,1,63.32,60.6Z"/><path class="cls-5" d="M47.89,84.33s0,0,0,.08h0Z"/><path class="cls-3" d="M71.44,32l-9,1.84L47.89,84.33s0,0,0,.08c-.87,3.19,1.79,6.92,6,8.34s8.34,0,9.31-3.15h0l0-.11L77.78,39h0ZM61.85,88.83v0l-.12.41h0c-.84,2.23-4.08,3.13-7.41,2s-5.52-3.87-5-6.22h0l.12-.44L63.75,35h0l7.16-1.19,5.24,5.41h0Z"/><polygon class="cls-6" points="63.75 35.02 63.75 35.03 63.73 35.03 63.75 35.02"/><polygon class="cls-6" points="63.76 35.02 63.75 35.02 63.75 35.02 63.76 35.02"/><path class="cls-6" d="M49.34,84.81l.07-.22-.12.44A2.25,2.25,0,0,1,49.34,84.81Z"/><path class="cls-6" d="M61.84,88.85a1.94,1.94,0,0,1-.05.2,1.72,1.72,0,0,1-.07.21Z"/><path class="cls-3" d="M58.4,68.89l-2.5-.77a.61.61,0,0,1-.38-.74h0a.54.54,0,0,1,.68-.4l2.5.77a.61.61,0,0,1,.38.73h0A.54.54,0,0,1,58.4,68.89Z"/><path class="cls-3" d="M59.16,66l-2.51-.77a.59.59,0,0,1-.37-.73h0a.53.53,0,0,1,.67-.41l2.51.77a.61.61,0,0,1,.38.74h0A.55.55,0,0,1,59.16,66Z"/><path class="cls-3" d="M61.94,64l-4.57-1.42a.61.61,0,0,1-.38-.73h0a.54.54,0,0,1,.68-.41l4.57,1.41a.61.61,0,0,1,.38.74h0A.55.55,0,0,1,61.94,64Z"/><path class="cls-3" d="M59.44,72.4,54.86,71a.6.6,0,0,1-.37-.74h0a.53.53,0,0,1,.67-.4l4.58,1.41a.61.61,0,0,1,.38.73h0A.55.55,0,0,1,59.44,72.4Z"/><path class="cls-3" d="M56.12,77.6l-2.51-.78a.61.61,0,0,1-.38-.73h0a.55.55,0,0,1,.68-.41l2.51.77a.6.6,0,0,1,.37.74h0A.54.54,0,0,1,56.12,77.6Z"/><path class="cls-3" d="M56.87,74.73,54.37,74a.61.61,0,0,1-.38-.73h0a.54.54,0,0,1,.68-.41l2.5.77a.61.61,0,0,1,.38.74h0A.55.55,0,0,1,56.87,74.73Z"/><path class="cls-3" d="M57.15,81l-4.57-1.41a.61.61,0,0,1-.38-.74h0a.56.56,0,0,1,.68-.41l4.57,1.42a.61.61,0,0,1,.38.73h0A.54.54,0,0,1,57.15,81Z"/><path class="cls-3" d="M53.89,86.08l-2.51-.77a.6.6,0,0,1-.37-.74h0a.54.54,0,0,1,.67-.41l2.51.78a.61.61,0,0,1,.38.73h0A.55.55,0,0,1,53.89,86.08Z"/><path class="cls-3" d="M54.64,83.21l-2.5-.77a.61.61,0,0,1-.38-.74h0a.55.55,0,0,1,.68-.41l2.5.78a.61.61,0,0,1,.38.73h0A.54.54,0,0,1,54.64,83.21Z"/><path class="cls-3" d="M60.91,60.94l-2.51-.78a.61.61,0,0,1-.38-.73h0A.55.55,0,0,1,58.7,59l2.51.77a.6.6,0,0,1,.37.74h0A.54.54,0,0,1,60.91,60.94Z"/><path class="cls-3" d="M61.59,58.35l-2.51-.78a.59.59,0,0,1-.37-.73h0a.53.53,0,0,1,.67-.41l2.51.77a.61.61,0,0,1,.38.74h0A.55.55,0,0,1,61.59,58.35Z"/><path class="cls-3" d="M64.47,55.84l-4.58-1.41a.6.6,0,0,1-.37-.74h0a.53.53,0,0,1,.67-.4l4.58,1.41a.61.61,0,0,1,.38.73h0A.55.55,0,0,1,64.47,55.84Z"/><path class="cls-3" d="M63.53,52.58,61,51.81a.6.6,0,0,1-.37-.74h0a.54.54,0,0,1,.67-.41l2.51.78a.61.61,0,0,1,.38.73h0A.55.55,0,0,1,63.53,52.58Z"/><path class="cls-3" d="M64.21,50l-2.51-.78a.6.6,0,0,1-.37-.73h0a.55.55,0,0,1,.68-.41l2.5.78a.61.61,0,0,1,.38.73h0A.55.55,0,0,1,64.21,50Z"/><path class="cls-2" d="M71.32,27.16h0a.43.43,0,0,1-.26-.54l1.1-4a.4.4,0,0,1,.5-.29h0a.43.43,0,0,1,.26.54l-1.1,4A.39.39,0,0,1,71.32,27.16Z"/><path class="cls-2" d="M74.19,19h0a.45.45,0,0,1-.27-.54l1.1-4a.4.4,0,0,1,.5-.29h0a.45.45,0,0,1,.27.54l-1.1,4A.4.4,0,0,1,74.19,19Z"/><rect class="cls-2" x="75.56" y="12.3" width="0.73" height="0.79" rx="0.34"/><path class="cls-1" d="M36.26,89a7.21,7.21,0,0,0-.21,3.63c.18,1.1.53,1.75.46,1.78a4.62,4.62,0,0,1-1.32-3.22,5.53,5.53,0,0,1,.49-2.42c1.71-3.62,7-3.39,7-3.27S37.72,85.77,36.26,89Z"/><path class="cls-1" d="M65.54,94.18a12,12,0,0,1-5.35,3.34C54.49,99.13,48.78,95,48.77,95a15.54,15.54,0,0,0,4.66,1.74,14.08,14.08,0,0,0,7.21.11A12.9,12.9,0,0,0,65.54,94.18Z"/><path class="cls-1" d="M56.45,113c.1-.07,3.06,3.13,2.31,5.22-1.19,3.3-10.85,1.61-10.85,1.57s9,1.44,10.22-1.78C58.91,116,56.35,113.06,56.45,113Z"/><path class="cls-1" d="M53,109.9a5.93,5.93,0,0,1-5.07.85,7.09,7.09,0,0,1-4.09-4.2c.05,0,1.27,2.76,3.92,3.73S53,109.81,53,109.9Z"/><path class="cls-1" d="M51.9,110.41a1.43,1.43,0,0,0,.46-.11,3.81,3.81,0,0,0,1.2-.68l1.32-4a.16.16,0,0,0-.11,0c-.09,0-.16.14-.19.2-.17.33-1,3.09-1.1,3.39a1.85,1.85,0,0,1-.23.3,3.61,3.61,0,0,1-.86.6C52.06,110.3,51.89,110.38,51.9,110.41Z"/><path class="cls-1" d="M56.18,105.92a25.6,25.6,0,0,1-6.45-1.5,29.52,29.52,0,0,1-5.81-2.72s1.58.83,3.89,1.76A48.61,48.61,0,0,0,56.18,105.92Z"/></g></svg>